<svg id="Layer_2" data-name="Layer 2" xmlns="http://www.w3.org/2000/svg" viewBox="0 0 1080 1080"><defs><style>.cls-1{fill:#683131;}.cls-2{fill:#d85108;}</style></defs><path class="cls-1" d="M319.13,571.18h42.21v26.75H289.22V481.61h29.91Z"/><rect class="cls-2" x="188.99" y="481.61" width="72.61" height="26.59" transform="translate(450.6 989.81) rotate(180)"/><rect class="cls-2" x="201.09" y="526.48" width="60.51" height="26.59" transform="translate(462.7 1079.54) rotate(180)"/><rect class="cls-2" x="211.18" y="571.34" width="50.43" height="26.59" transform="translate(472.78 1169.27) rotate(180)"/><path class="cls-2" d="M383.6,585.36c0-8.35,6.56-13.87,14.91-13.87,8.05,0,14.61,5.52,14.61,13.87,0,8.2-6.56,13.57-14.61,13.57C390.16,598.93,383.6,593.56,383.6,585.36Z"/><path class="cls-1" d="M435.38,599.07V482.76h51.18c55.66.16,55.66,86.57,0,86.57H465.12v29.74Zm51-89.73c-7-.16-14.45,0-21.27,0v33.24h21.27C502.68,542.58,503.67,509.51,486.39,509.34Z"/><path class="cls-1" d="M729.27,563.2c0-8.14-9.63-9.47-21.27-10.13-25.25-1.83-41.87-10.47-42.2-35.73-1-50.18,89.4-50.18,88.73,0H726.28c0-15.45-31.24-14.12-32.23-.33-.67,8.8,8,10.63,18.44,11.79,23.1,2.5,45.7,5.49,45.7,34.57,0,48.85-94.72,50.18-94.05-1h28.74C692.88,577.16,729.27,576.83,729.27,563.2Z"/><path class="cls-1" d="M771.7,539.94c0-80.43,119.31-80.43,119.31,0C891,620.53,771.7,620.53,771.7,539.94Zm88.9,0c0-41.88-58.32-41.88-58.32,0C802.28,582.14,860.6,582.14,860.6,539.94Z"/><polygon class="cls-1" points="652.58 597.93 624.01 597.93 611.93 569.33 601.11 543.74 593.58 525.92 586.14 543.74 575.44 569.33 563.49 597.93 534.93 597.93 547.34 569.33 558.46 543.74 586.08 480.12 601.26 480.12 628.97 543.74 640.12 569.33 652.58 597.93"/><polygon class="cls-1" points="586.14 543.74 575.44 569.33 537.52 569.33 537.52 543.74 586.14 543.74"/><polygon class="cls-1" points="649.98 543.74 649.98 569.33 611.93 569.33 601.11 543.74 649.98 543.74"/></svg>